<?xml version="1.0" standalone="no"?>
<!DOCTYPE svg PUBLIC "-//W3C//DTD SVG 20010904//EN"
 "http://www.w3.org/TR/2001/REC-SVG-20010904/DTD/svg10.dtd">
<svg version="1.0" xmlns="http://www.w3.org/2000/svg"
 width="1024.000000pt" height="1024.000000pt" viewBox="0 0 1024.000000 1024.000000"
 preserveAspectRatio="xMidYMid meet">
<metadata>
Created by potrace 1.14, written by Peter Selinger 2001-2017
</metadata>
<g transform="translate(0.000000,1024.000000) scale(0.100000,-0.100000)"
fill="#000000" stroke="none">
<path d="M4020 10224 c-234 -50 -436 -254 -485 -489 -60 -285 80 -578 335
-704 121 -59 189 -71 418 -71 l192 0 0 -344 0 -344 -97 -17 c-247 -42 -604
-147 -848 -247 -911 -377 -1661 -1067 -2111 -1943 -242 -470 -373 -902 -441
-1455 -24 -201 -24 -706 0 -900 53 -413 138 -752 277 -1105 64 -162 243 -511
340 -663 564 -886 1422 -1521 2430 -1797 182 -49 404 -92 607 -117 256 -31
710 -31 965 0 1292 157 2416 882 3081 1987 311 515 492 1052 574 1695 24 190
24 710 0 900 -82 645 -261 1178 -571 1690 l-75 125 278 280 c268 270 280 283
320 366 55 114 74 208 68 324 -17 292 -223 530 -510 589 -101 21 -175 20 -276
-4 -160 -39 -197 -65 -481 -347 l-255 -252 -105 81 c-357 274 -766 492 -1206
641 -172 59 -427 125 -586 152 l-98 17 0 344 0 344 193 0 c227 0 293 12 415
71 153 74 277 223 328 394 25 83 25 267 0 350 -51 170 -174 319 -326 394 -150
73 -103 71 -1255 70 -842 0 -1042 -3 -1095 -15z m1215 -3359 c178 -47 321
-197 355 -374 14 -74 14 -2668 0 -2742 -42 -218 -248 -389 -470 -389 -222 0
-428 171 -470 389 -14 74 -14 2668 0 2742 50 264 326 441 585 374z"/>
</g>
</svg>
